# xmcd
#
# Track frame offsets: 
#        150
#        18406
#        43574
#        64281
#        81821
#        89127
#        103375
#        118084
#        139305
#        155236
#        173543
#        190214
#
# Disc length: 2837 seconds
#
# Revision: 0
# Processed by: cddbd v1.5.2PL0 Copyright (c) Steve Scherf et al.
# Submitted via: ExactAudioCopy v0.99pb5
#
DISCID=ad0b130c
DTITLE=Akexander O'Neal - Hearsay (2013 Bonus CD)
DYEAR=2013
DGENRE=R&B
TTITLE0=Criticize (Single Edit)
TTITLE1=Criticize (Critical Mix)
TTITLE2=Criticize (Critical Dub)
TTITLE3=Criticize (Critical Edit)
TTITLE4=Criticize (Nag Mix)
TTITLE5=Fake (Edit)
TTITLE6=Fake (Party Mix)
TTITLE7=Fake (Instrumental)
TTITLE8=Never Knew Love Like This (Eidt)
TTITLE9=Sunshine (Edit)
TTITLE10=Hearsay '89
TTITLE11=The Lovers (Bonus Beats)
EXTD=
EXTT0=
EXTT1=
EXTT2=
EXTT3=
EXTT4=
EXTT5=
EXTT6=
EXTT7=
EXTT8=
EXTT9=
EXTT10=
EXTT11=
PLAYORDER=
